<svg xmlns="http://www.w3.org/2000/svg" xml:space="preserve" width="1024" height="768" fill-rule="evenodd" clip-rule="evenodd" image-rendering="optimizeQuality" shape-rendering="geometricPrecision" text-rendering="geometricPrecision" viewBox="0 0 1024 768"><g id="Layer_x0020_1"><path id="assurance" fill="#000" fill-rule="nonzero" d="M766.975 452.382a366 366 0 0 0-2.278-6.696q-1.17-3.33-2.239-6.697a3922 3922 0 0 0-2.279 6.697q-1.13 3.328-2.279 6.696zm11.889 11.374q0 .594-.753.594h-.476a3.6 3.6 0 0 1-.515-.04 26 26 0 0 0-2.041-.079h-4.696q-1.308 0-2.655.079-.159.04-.317.04h-.317q-.555 0-.555-.555 0-.475.337-.574a2.1 2.1 0 0 1 .773-.06q.436.04.713.04.714 0 1.05-.297.337-.298.337-1.05 0-.437-.277-1.526a56 56 0 0 0-.674-2.398 92 92 0 0 0-.773-2.437l-.534-1.605h-10.106l-.356 1.07q-.278.832-.654 1.942-.377 1.11-.733 2.179a88 88 0 0 0-.595 1.843q-.238.773-.238.932 0 .753.397 1.03.396.277.991.297.594.02 1.149.02.198 0 .317.257.119.258.119.456a.4.4 0 0 1-.179.357.67.67 0 0 1-.376.119q-1.308 0-2.596-.06a56 56 0 0 0-2.556-.059q-.634 0-1.268.039-.634.04-1.307.04a.64.64 0 0 1-.397-.158q-.198-.159-.198-.357 0-.437.317-.555t.733-.099.694.02q.515 0 .851-.416.337-.417.496-.813a325 325 0 0 0 4.438-11.789 596 596 0 0 0 4.082-11.908q.159-.436.396-1.228.238-.793.238-1.189a.84.84 0 0 0-.099-.416.7.7 0 0 1-.099-.337q0-.159.396-.238.397-.079.832-.119.437-.039.555-.039l1.645-.238a32 32 0 0 1 1.644-.198l9.709 27.383q.316.95.852 1.208.535.258 1.446.258.357 0 .595.099.237.099.238.535m17.158-5.429q0 1.862-.792 3.031a5.27 5.27 0 0 1-2.101 1.803 10 10 0 0 1-2.833.872 19.6 19.6 0 0 1-3.032.238q-.99 0-1.941-.198a51 51 0 0 1-1.903-.436 30 30 0 0 1-.832-.179 4 4 0 0 0-.871-.099q-.159-.555-.456-1.644a89 89 0 0 1-.555-2.14q-.258-1.05-.257-1.486 0-.437.277-.555t.594-.119q.476 0 .714.357.594.832.951 1.744a5.2 5.2 0 0 0 1.109 1.703q.555.596 1.605 1.209 1.05.615 1.882.614 1.784 0 2.675-.832.892-.832.892-2.655 0-1.229-.753-2.06-.753-.832-1.922-1.506a47 47 0 0 0-2.477-1.328 22 22 0 0 1-2.476-1.446 7 7 0 0 1-1.922-1.922q-.753-1.13-.753-2.754 0-2.022 1.109-3.289 1.11-1.269 2.834-1.863a10.6 10.6 0 0 1 3.467-.594q.793 0 1.546.118.753.12 1.505.436.357.119.971.298.615.178.971.178.516 0 .991-.119.08 1.11.257 2.219.179 1.11.218 2.219v.119a.77.77 0 0 1-.218.654.84.84 0 0 1-.614.258q-.396 0-.574-.159a1.6 1.6 0 0 1-.337-.475q-.515-1.15-1.011-2.2a4.9 4.9 0 0 0-1.307-1.723q-.813-.674-2.319-.674-1.585 0-2.338 1.228a4.9 4.9 0 0 0-.753 2.616q0 1.11.833 1.902a8.1 8.1 0 0 0 1.703 1.268q1.07.555 2.477 1.228 1.407.674 2.715 1.546a9 9 0 0 1 2.179 2.001q.873 1.13.872 2.596m17.674 0q0 1.862-.793 3.031a5.26 5.26 0 0 1-2.1 1.803 10 10 0 0 1-2.833.872 19.6 19.6 0 0 1-3.032.238 9.5 9.5 0 0 1-1.941-.198 50 50 0 0 1-1.903-.436 30 30 0 0 1-.832-.179 4 4 0 0 0-.871-.099q-.159-.555-.456-1.644a84 84 0 0 1-.555-2.14q-.258-1.05-.258-1.486 0-.437.278-.555.277-.119.594-.119.475 0 .714.357.594.832.951 1.744a5.2 5.2 0 0 0 1.109 1.703q.555.596 1.605 1.209 1.05.615 1.882.614 1.784 0 2.675-.832t.892-2.655q0-1.229-.753-2.06-.753-.832-1.922-1.506-1.17-.675-2.477-1.328a22 22 0 0 1-2.477-1.446 7 7 0 0 1-1.922-1.922q-.752-1.13-.752-2.754 0-2.022 1.109-3.289 1.11-1.269 2.833-1.863a10.6 10.6 0 0 1 3.468-.594q.793 0 1.546.118a6.5 6.5 0 0 1 1.505.436q.357.119.971.298.615.178.971.178.515 0 .991-.119.079 1.11.257 2.219.179 1.11.218 2.219v.119a.77.77 0 0 1-.218.654.84.84 0 0 1-.614.258q-.396 0-.574-.159a1.6 1.6 0 0 1-.337-.475q-.516-1.15-1.011-2.2a4.9 4.9 0 0 0-1.308-1.723q-.812-.674-2.318-.674-1.585 0-2.338 1.228a4.9 4.9 0 0 0-.753 2.616q0 1.11.832 1.902a8.2 8.2 0 0 0 1.704 1.268q1.07.555 2.477 1.228 1.407.674 2.715 1.546a9.1 9.1 0 0 1 2.179 2.001q.872 1.13.872 2.596m25.401 4.359q0 .317-.396.554-1.07.754-1.982.912t-2.179.158q-1.228 0-2.081-1.03-.852-1.03-1.049-2.14-1.15 1.585-2.715 2.437t-3.547.852q-3.804 0-5.389-1.763-1.585-1.764-1.585-5.488v-2.656q0-2.06.02-4.101t.019-4.102q0-.435-.118-.951-.12-.515-.714-.515-.237 0-.455.04t-.456.04q-.277 0-.634-.08t-.357-.436q0-.316.139-.436a.76.76 0 0 1 .376-.158 5 5 0 0 1 .951-.158q.516-.04.952-.08a41 41 0 0 0 4.477-.832q.238-.08.436-.079.555 0 .555.515 0 3.408-.079 6.836a295 295 0 0 0-.08 6.835q0 .952.06 2.002t.357 1.961a2.97 2.97 0 0 0 1.01 1.466q.714.555 1.981.555 1.348 0 2.458-1.05 1.109-1.05 1.624-2.16.039-.079.159-.376.118-.297.118-.337 0-3.17-.019-6.32-.02-3.151-.02-6.282 0-.435-.119-.951-.119-.515-.713-.515-.238 0-.476.04-.237.04-.515.04-.277 0-.614-.08t-.337-.436q0-.316.139-.436a.76.76 0 0 1 .376-.158 5 5 0 0 1 .951-.158q.516-.04.991-.08a49 49 0 0 0 4.399-.832q.119-.04.218-.059a1 1 0 0 1 .217-.02q.595 0 .595.515 0 4.319-.04 8.659a968 968 0 0 0-.039 8.698q0 .396.039.891.04.496.278.872.237.377.792.377.436 0 .872-.218.437-.218.753-.218.198 0 .297.138a.5.5 0 0 1 .099.298m17.991-15.138q0 .396-.218.733-.217.337-.654.337-.673 0-.911-.555a17 17 0 0 1-.495-1.208 4.3 4.3 0 0 0-.674-1.209q-.416-.516-1.169-.515-.396 0-.753.158a3.5 3.5 0 0 0-.674.397q-1.268.871-2.04 2.476-.773 1.605-1.011 3.15v-.039 10.739q0 .674.377.872t.911.139.971-.06q.555 0 .555.594 0 .635-.634.635-1.19 0-2.378-.04a70 70 0 0 0-2.378-.04q-1.229 0-2.457.06a53 53 0 0 1-2.496.059q-.278 0-.396-.218a.86.86 0 0 1-.119-.416q0-.594.634-.594.396 0 .773.02.376.02.772.019.476 0 .634-.317t.159-.713v-14.345q0-.436-.08-1.031a3.1 3.1 0 0 0-.336-1.07q-.258-.474-.852-.475-.396 0-.773.099a3.2 3.2 0 0 1-.812.099q-.595 0-.595-.594 0-.436.436-.595a4.8 4.8 0 0 1 1.149-.257q.595-.06 1.15-.178.514-.12 1.347-.338a43 43 0 0 1 1.644-.396q.813-.178 1.249-.178.594 0 .871.436.12.198.238.931.119.733.199 1.486.078.753.078 1.07a19.7 19.7 0 0 1 2.735-2.813q1.506-1.269 3.646-1.268.554 0 1.169.217.614.219.772.853.199.753.317 1.921.12 1.17.119 1.962m13.276 12.403a89 89 0 0 1-.159-7.529 11.8 11.8 0 0 0-3.15 1.011q-1.526.732-2.516 1.961-.991 1.229-.991 3.131 0 .792.218 1.704.217.911.792 1.526.576.614 1.565.614.714 0 1.507-.416a11 11 0 0 0 1.525-.971q.734-.555 1.209-1.031m8.163 2.338q0 .159-.139.357a2.4 2.4 0 0 1-.257.317q-1.229 1.427-3.17 1.427-1.704 0-2.735-.753t-1.585-2.338q-1.268 1.347-2.714 2.14-1.447.792-3.388.792-1.387 0-2.794-.614a6.1 6.1 0 0 1-2.338-1.763 4.1 4.1 0 0 1-.931-2.656q0-1.505.772-2.674a7.7 7.7 0 0 1 1.962-2.021 14 14 0 0 1 2.417-1.407 19 19 0 0 1 3.25-1.05 307 307 0 0 0 3.328-.773v-.159q0-.713-.02-1.921a13.7 13.7 0 0 0-.257-2.418q-.238-1.208-.793-2.06-.554-.853-1.625-.852-1.228 0-2.199.713a3.78 3.78 0 0 0-1.367 1.902 7 7 0 0 0-.119.694 7 7 0 0 1-.119.693q-.08.635-.733.852a3.9 3.9 0 0 1-1.209.218q-.673 0-1.307-.297t-.634-1.13q0-.317.099-.574.1-.258.218-.535.634-1.506 1.902-2.219a8.2 8.2 0 0 1 2.794-.952 19 19 0 0 1 2.912-.237q3.25 0 5.35 1.743t2.1 5.152v5.984a44 44 0 0 0 .079 4.596q.08.674.318 1.289t1.069.614q.556 0 .932-.238t.693-.238q.159 0 .198.159.04.158.04.237m24.291 1.308q0 .634-.633.634-1.149 0-2.319-.059-1.169-.06-2.318-.06-1.11 0-2.259.06-1.149.059-2.298.059-.277 0-.396-.218a.93.93 0 0 1-.119-.456q0-.594.634-.594.357 0 .713.02.357.02.713.02.595 0 .595-.516 0-3.329.02-6.657t.02-6.657q0-1.07-.179-2.219-.178-1.15-.792-1.942-.615-.793-2.002-.793-.872 0-1.802.634a8.2 8.2 0 0 0-1.665 1.506q-.734.872-1.05 1.625v14.028q0 .356.099.674.099.317.535.317.317 0 .654-.02.336-.02.654-.02.198 0 .396.159.198.158.198.356 0 .753-.634.753-1.11 0-2.199-.099a25 25 0 0 0-2.239-.099q-1.19 0-2.398.099t-2.437.099q-.277 0-.396-.218a.94.94 0 0 1-.119-.456q0-.594.634-.594.357 0 .713.02.357.02.753.02.555 0 .634-.238.08-.238.08-.753v-15.415q0-.436-.119-.971-.118-.535-.714-.535-.396 0-.772.04a8 8 0 0 1-.773.039 1.7 1.7 0 0 1-.535-.099q-.297-.1-.297-.416 0-.238.158-.357a.9.9 0 0 1 .357-.158 4.3 4.3 0 0 1 .832-.159q.436-.039.832-.118a37 37 0 0 0 2.041-.456q1.011-.258 2.001-.535.16-.08.317-.139a.9.9 0 0 1 .317-.059q.317 0 .575.594.258.595.436 1.268.178.674.218.951 1.15-1.03 2.774-1.842t3.209-.813q2.656 0 4.142.674 1.485.673 2.12 2.239.633 1.565.634 4.181 0 3.09-.04 6.182a490 490 0 0 0-.04 6.181q0 .397.258.575t.654.178q.277 0 .535-.039.257-.04.535-.04.554 0 .554.634m21.875-4.716a.8.8 0 0 1-.079.337q-.08.178-.158.337a7.85 7.85 0 0 1-2.239 2.596 10.7 10.7 0 0 1-3.111 1.605 11 11 0 0 1-3.408.554q-1.467 0-3.21-.475-1.744-.475-3.012-1.348-2.06-1.505-3.031-3.724a11.6 11.6 0 0 1-.971-4.716q0-3.091 1.189-5.647 1.188-2.556 3.467-4.102 2.279-1.545 5.528-1.545 1.188 0 2.259.357.317.079 1.01.416t1.367.614.833.277q.435 0 .852-.337.416-.336.653-.336t.238.317q.08.396.079.852 0 .455.04.891.04.952.139 1.902.099.952.099 1.903 0 .515-.159.911-.158.396-.752.396-.397 0-.595-.198a1.1 1.1 0 0 1-.277-.515q-.476-1.426-.971-2.794-.496-1.366-1.645-2.397-.436-.436-1.248-.813t-1.447-.376q-1.664 0-2.734 1.07t-1.704 2.655a15 15 0 0 0-.892 3.269q-.257 1.684-.257 2.953 0 1.188.278 2.754.276 1.565.911 3.011t1.664 2.418q1.03.97 2.576.971 1.466 0 2.972-.635 1.506-.633 2.536-1.664.318-.317.654-.674a6.4 6.4 0 0 0 .614-.753q.12-.197.238-.376.119-.178.277-.337.317-.317.635-.317.317 0 .555.198a.64.64 0 0 1 .237.515m15.415-8.639q0-.792-.079-1.901a10.7 10.7 0 0 0-.376-2.16q-.297-1.05-.932-1.764-.634-.713-1.743-.713-1.07 0-1.883.693a5.9 5.9 0 0 0-1.367 1.744q-.555 1.05-.872 2.18-.316 1.129-.475 2.001.673 0 1.328.02.653.02 1.287.02 2.576 0 5.112-.12m5.707 8.758q0 .119-.06.337a1.2 1.2 0 0 1-.139.337q-.276.635-1.03 1.446-.753.813-1.347 1.249-2.656 2.02-6.142 2.021-3.131 0-5.429-1.328a8.9 8.9 0 0 1-3.527-3.705q-1.229-2.377-1.229-5.469 0-3.09 1.209-5.607 1.209-2.516 3.487-4.002t5.489-1.486q3.685 0 5.904 2.021 2.22 2.021 2.219 5.785 0 1.03-.951 1.031-1.743 0-3.487-.04t-3.487-.04h-2.536q-1.269 0-2.537.04a24 24 0 0 0-.119 2.417q0 1.11.298 2.616.297 1.506.911 2.932.615 1.427 1.605 2.358.991.931 2.417.931 1.783 0 2.992-.515a6.8 6.8 0 0 0 2.16-1.466 22 22 0 0 0 1.942-2.259 1.2 1.2 0 0 1 .257-.257.56.56 0 0 1 .337-.099q.277 0 .535.217a.68.68 0 0 1 .258.535"/><path id="point2" fill="#000" d="M734.542 446.049a4 4 0 1 1 .001 8 4 4 0 0 1-.001-8"/><path id="fiscalite" fill="#000" fill-rule="nonzero" d="M579.304 440.732q0 .396-.397.615a1.57 1.57 0 0 1-.752.217q-.437 0-.773-.178-.337-.178-.456-.654a8.1 8.1 0 0 0-1.585-2.912q-1.07-1.25-2.972-1.249h-6.261v11.928h2.377q1.467 0 2.953-.079 1.485-.08 2.912-.396.555-.159 1.149-.357a3.8 3.8 0 0 1 1.189-.198q.476 0 .476.436 0 .317-.139.832a9 9 0 0 1-.257.832q-.16.515-.377.615-.218.098-.733.099a33 33 0 0 1-3.606-.198 32 32 0 0 0-3.606-.199 3.8 3.8 0 0 0-1.585.337q-.753.337-.753 1.367v9.194q0 1.188.436 1.624.435.436 1.188.456t1.625.02q.317 0 .575.139.257.138.257.495 0 .832-.832.832h-.396q-.198 0-.397-.039a43 43 0 0 0-2.615-.08h-2.576q-1.307 0-2.615.099a35 35 0 0 1-2.616.099q-.317 0-.594-.099-.277-.098-.277-.495 0-.515.337-.634.336-.119.851-.099a3.4 3.4 0 0 0 1.031-.119q.514-.138.852-.713.337-.574.337-1.843v-21.795q0-.912-.278-1.407-.277-.495-1.268-.495-.357 0-.693.02-.337.02-.694.02-.475 0-.931-.1-.456-.099-.456-.733 0-.356.238-.554a.84.84 0 0 1 .555-.199q1.387 0 2.754.06 1.368.059 2.714.059 5.865 0 11.69-.119l2.101-.079a18 18 0 0 0 2.1-.198l.317 2.298.317 2.299q.04.277.099.594.06.318.06.634m12.918 22.826q0 .634-.634.634a28 28 0 0 1-2.338-.099 28.6 28.6 0 0 0-4.775 0q-1.209.099-2.398.099-.277 0-.396-.218a.9.9 0 0 1-.119-.416q0-.634.595-.634.396 0 .753.039.356.04.713.04.476 0 .614-.317.14-.317.139-.713V446.24a6 6 0 0 0-.079-.891q-.08-.496-.634-.495-.516 0-1.07.079-.555.08-1.11.079a.95.95 0 0 1-.456-.119q-.218-.118-.218-.396 0-.516.516-.674.435-.08.931-.138.495-.06.931-.1a35 35 0 0 0 2.715-.495q1.327-.297 2.674-.614.12 0 .238-.02.12-.02.198-.02.595 0 .595.476 0 4.755-.04 9.53-.039 4.775-.039 9.531 0 .713.316.891.318.178.813.139.495-.04 1.01-.04.555 0 .555.595m-2.496-27.225q0 1.229-.892 2.14a2.9 2.9 0 0 1-2.16.912q-1.228 0-2.14-.912-.91-.911-.911-2.14 0-1.268.911-2.159.912-.892 2.14-.892 1.269 0 2.16.892.892.891.892 2.159m20.408 21.875q0 1.863-.793 3.031a5.25 5.25 0 0 1-2.1 1.804 10 10 0 0 1-2.833.871 19.6 19.6 0 0 1-3.032.238q-.99 0-1.942-.198a50 50 0 0 1-1.902-.436 34 34 0 0 1-.832-.178 4 4 0 0 0-.872-.099q-.158-.555-.455-1.645a83 83 0 0 1-.555-2.14q-.258-1.05-.258-1.486t.278-.555q.277-.118.594-.118.475 0 .714.356.594.832.95 1.744a5.3 5.3 0 0 0 1.11 1.704q.555.594 1.605 1.208 1.05.615 1.882.615 1.784 0 2.675-.833.892-.831.892-2.654 0-1.23-.753-2.061-.753-.833-1.922-1.506a48 48 0 0 0-2.477-1.328 22 22 0 0 1-2.477-1.446 7 7 0 0 1-1.922-1.922q-.752-1.13-.752-2.754 0-2.021 1.109-3.289 1.11-1.268 2.833-1.862a10.6 10.6 0 0 1 3.468-.595q.793 0 1.545.119a6.5 6.5 0 0 1 1.506.436q.357.119.971.297t.971.178q.515 0 .991-.119.078 1.11.257 2.22.179 1.109.218 2.219v.119a.76.76 0 0 1-.218.653.84.84 0 0 1-.614.258q-.397 0-.574-.159a1.5 1.5 0 0 1-.337-.475q-.516-1.149-1.011-2.199t-1.308-1.724-2.318-.674q-1.585 0-2.338 1.229a4.9 4.9 0 0 0-.753 2.615q0 1.11.832 1.902a8.2 8.2 0 0 0 1.704 1.268q1.07.555 2.477 1.229a22 22 0 0 1 2.715 1.545 9.1 9.1 0 0 1 2.179 2.001q.872 1.13.872 2.596m21.914.555a.8.8 0 0 1-.079.336 8 8 0 0 1-.159.338 7.8 7.8 0 0 1-2.239 2.595q-1.406 1.05-3.111 1.605-1.703.555-3.408.555-1.466 0-3.21-.476t-3.011-1.347q-2.06-1.506-3.032-3.725a11.65 11.65 0 0 1-.971-4.716q0-3.09 1.189-5.647 1.19-2.556 3.468-4.101 2.279-1.546 5.528-1.546 1.188 0 2.259.357.317.079 1.01.416t1.367.614q.674.278.832.278.436 0 .853-.337.416-.337.653-.337t.238.317q.08.396.079.852 0 .456.04.892.039.951.139 1.902.099.951.099 1.902 0 .515-.159.911-.159.397-.753.397-.396 0-.594-.198a1.1 1.1 0 0 1-.278-.515q-.475-1.428-.971-2.794-.494-1.368-1.644-2.398-.437-.435-1.248-.812-.813-.377-1.447-.377-1.664 0-2.734 1.07t-1.704 2.655a14.8 14.8 0 0 0-.892 3.27q-.257 1.683-.257 2.952 0 1.188.277 2.754.277 1.565.912 3.012.633 1.445 1.664 2.417 1.03.97 2.576.971 1.466 0 2.972-.634 1.506-.635 2.536-1.664.316-.318.654-.674.336-.357.614-.753.119-.198.238-.377a2 2 0 0 1 .277-.336q.318-.318.634-.318a.84.84 0 0 1 .555.199.64.64 0 0 1 .238.515m13.671 1.07a88 88 0 0 1-.158-3.745 92 92 0 0 1 0-3.785 11.9 11.9 0 0 0-3.151 1.011q-1.525.733-2.516 1.962-.99 1.228-.991 3.13 0 .793.218 1.704.219.911.793 1.526.575.614 1.565.614.714 0 1.506-.416a11 11 0 0 0 1.526-.971q.732-.555 1.208-1.03m8.164 2.338q0 .159-.139.356a2.5 2.5 0 0 1-.258.318q-1.227 1.426-3.17 1.426-1.704 0-2.734-.753t-1.585-2.338q-1.269 1.348-2.715 2.14-1.446.793-3.388.793-1.387 0-2.793-.615a6.1 6.1 0 0 1-2.338-1.763 4.1 4.1 0 0 1-.932-2.655q0-1.506.773-2.675a7.7 7.7 0 0 1 1.961-2.021 14 14 0 0 1 2.418-1.407 19 19 0 0 1 3.249-1.05q1.665-.377 3.329-.773v-.158q0-.714-.02-1.922a13.7 13.7 0 0 0-.257-2.418q-.238-1.208-.793-2.06t-1.625-.852q-1.228 0-2.199.713a3.8 3.8 0 0 0-1.367 1.902 7 7 0 0 0-.119.694 7 7 0 0 1-.119.693q-.08.635-.733.852a3.8 3.8 0 0 1-1.209.218q-.673 0-1.308-.297-.633-.297-.633-1.129 0-.317.099-.575t.217-.535q.634-1.505 1.903-2.219a8.2 8.2 0 0 1 2.793-.951 19 19 0 0 1 2.913-.238q3.25 0 5.35 1.744t2.1 5.151v5.984a44 44 0 0 0 .079 4.597q.08.673.317 1.288.238.614 1.07.614.555 0 .932-.238.376-.237.693-.237.158 0 .198.158.04.159.04.238m12.8 1.347q0 .634-.635.634a29 29 0 0 1-2.417-.099 29 29 0 0 0-2.417-.099q-1.269 0-2.556.099-1.289.099-2.556.099-.277 0-.396-.218a.93.93 0 0 1-.119-.456q0-.435.416-.554t.951-.079.812.039q.872 0 .872-.951v-24.094q0-.436-.079-1.089-.08-.654-.753-.654a3.2 3.2 0 0 0-.931.138 3.2 3.2 0 0 1-.932.139q-.594 0-.594-.634 0-.436.515-.634a7 7 0 0 1 1.09-.238q.574-.08 1.09-.198 1.188-.277 2.357-.575t2.319-.574a1.6 1.6 0 0 1 .475-.079q.238 0 .456.099t.218.416q0 6.975-.04 13.989-.039 7.014-.039 13.988 0 .674.396.872t.951.139.991-.06q.554 0 .555.634m13.512.04q0 .634-.634.634a28 28 0 0 1-2.338-.099 28.6 28.6 0 0 0-4.775 0q-1.209.099-2.398.099-.277 0-.396-.218a.9.9 0 0 1-.119-.416q0-.634.595-.634.396 0 .753.039.356.04.713.04.476 0 .614-.317.14-.317.139-.713V446.24a6 6 0 0 0-.079-.891q-.08-.496-.634-.495-.516 0-1.07.079-.555.08-1.11.079a.94.94 0 0 1-.455-.119q-.219-.118-.219-.396 0-.516.516-.674.436-.08.931-.138.495-.06.931-.1a35 35 0 0 0 2.715-.495q1.327-.297 2.674-.614.12 0 .238-.02.119-.02.199-.02.594 0 .594.476 0 4.755-.04 9.53-.039 4.775-.039 9.531 0 .713.316.891.318.178.813.139.495-.04 1.01-.04.555 0 .555.595m-2.496-27.225q0 1.229-.892 2.14a2.9 2.9 0 0 1-2.159.912q-1.23 0-2.14-.912-.912-.911-.912-2.14 0-1.268.912-2.159.91-.892 2.14-.892 1.268 0 2.159.892.892.891.892 2.159m18.387 25.798q0 .555-.575.971-.574.416-1.426.673t-1.724.377-1.466.119q-2.973 0-4.122-1.209t-1.149-4.022q0-3.408.04-6.816.039-3.408.039-6.816h-1.822a.95.95 0 0 0-.674.258q-.278.257-.515.257-.396 0-.396-.396 0-.159.158-.594.159-.437.238-.555.118-.238.238-.278.119-.039.356-.039h2.457v-4.24q.991-.555 2.18-1.625 1.188-1.07 1.823-1.981.118-.199.317-.416a.62.62 0 0 1 .475-.218q.634 0 .595.554l-.119 7.926h4.081q.318 0 .575.139.257.138.257.495 0 .753-.832.753h-4.081l-.08 15.296q0 .635.258 1.209.257.574 1.011.574a8 8 0 0 0 1.367-.119 5 5 0 0 0 1.287-.396 3 3 0 0 0 .377-.178.76.76 0 0 1 .376-.099q.476 0 .476.396m15.019-12.007q0-.793-.08-1.902a10.7 10.7 0 0 0-.376-2.16q-.297-1.05-.931-1.763-.634-.714-1.744-.714-1.07 0-1.882.694a5.8 5.8 0 0 0-1.367 1.744q-.555 1.05-.872 2.179-.317 1.13-.476 2.001.674 0 1.328.02t1.288.02q2.576 0 5.112-.119m5.706 8.758q0 .118-.06.336a1.1 1.1 0 0 1-.138.337q-.278.634-1.031 1.447-.752.811-1.347 1.248-2.655 2.02-6.142 2.021-3.13 0-5.429-1.327a8.93 8.93 0 0 1-3.527-3.706q-1.228-2.378-1.228-5.468 0-3.091 1.208-5.608t3.488-4.002q2.278-1.486 5.488-1.486 3.685 0 5.904 2.021 2.22 2.02 2.22 5.786 0 1.03-.951 1.03-1.744 0-3.488-.04a156 156 0 0 0-3.487-.039h-2.536q-1.269 0-2.536.039a24 24 0 0 0-.119 2.418q0 1.109.297 2.615t.912 2.933 1.604 2.357q.991.932 2.418.932 1.783 0 2.992-.516a6.8 6.8 0 0 0 2.159-1.466 22 22 0 0 0 1.942-2.259q.119-.158.257-.257a.57.57 0 0 1 .338-.099q.277 0 .534.218a.67.67 0 0 1 .258.535m-4.28-22.826-10.66 2.18-.554-2.101 10.461-3.091z"/><path id="point1" fill="#000" d="M538.589 446.049a4 4 0 1 1 .001 8 4 4 0 0 1-.001-8"/><path id="finance" fill="#000" fill-rule="nonzero" d="M394.5 440.732q0 .397-.396.615t-.752.218q-.437 0-.773-.179-.337-.177-.456-.654a8.1 8.1 0 0 0-1.585-2.912q-1.07-1.248-2.972-1.248h-6.261V448.5h2.377q1.467 0 2.953-.08 1.485-.079 2.912-.396.555-.159 1.149-.357a3.7 3.7 0 0 1 1.189-.198q.476 0 .476.436 0 .318-.139.832a9 9 0 0 1-.258.832q-.158.516-.376.615-.219.099-.733.099-1.823 0-3.606-.198a33 33 0 0 0-3.606-.199q-.833 0-1.585.337-.753.337-.753 1.368v9.193q0 1.189.435 1.625.436.435 1.189.456.753.02 1.625.019.317 0 .575.139.257.14.257.495 0 .833-.832.833h-.396q-.198 0-.397-.04a43 43 0 0 0-2.615-.079h-2.576q-1.307 0-2.615.099a35 35 0 0 1-2.616.099q-.316 0-.594-.099t-.277-.495q0-.515.336-.635.338-.118.852-.099.516.02 1.031-.118.514-.14.852-.714.337-.575.337-1.842v-21.796q0-.91-.278-1.407-.277-.495-1.268-.495-.357 0-.693.02-.337.02-.694.02-.475 0-.931-.099-.456-.1-.456-.733 0-.357.238-.555a.84.84 0 0 1 .555-.198q1.388 0 2.754.059 1.367.06 2.714.06 5.865 0 11.69-.119l2.101-.08a18 18 0 0 0 2.1-.198l.317 2.299.317 2.298q.04.277.099.595t.059.633m12.919 22.826q0 .634-.634.634a28 28 0 0 1-2.338-.099 28.7 28.7 0 0 0-4.775 0q-1.209.099-2.398.099-.277 0-.396-.218a.9.9 0 0 1-.119-.416q0-.634.595-.634.396 0 .753.04.356.039.713.039.476 0 .614-.317.139-.317.139-.713v-15.732q0-.397-.079-.892-.08-.495-.635-.495-.515 0-1.07.079a8 8 0 0 1-1.109.079.93.93 0 0 1-.456-.119q-.218-.118-.218-.396 0-.515.515-.673.436-.08.932-.139.495-.06.931-.099a35 35 0 0 0 2.714-.496 229 229 0 0 0 2.675-.614q.12 0 .238-.02a1 1 0 0 1 .198-.019q.594 0 .594.475 0 4.755-.039 9.531-.04 4.775-.04 9.53 0 .713.317.892t.813.138q.495-.039 1.01-.039.555 0 .555.594m-2.496-27.224q0 1.228-.892 2.14a2.9 2.9 0 0 1-2.16.911q-1.228 0-2.14-.911-.91-.912-.911-2.14 0-1.268.911-2.16.912-.891 2.14-.891 1.268 0 2.16.891.892.892.892 2.16m27.818 27.145q0 .634-.634.634-1.15 0-2.318-.06a44.438 44.438 0 0 0-4.577 0q-1.149.06-2.299.06-.277 0-.396-.218a.94.94 0 0 1-.119-.456q0-.594.635-.594.356 0 .713.02.356.02.713.019.594 0 .594-.515 0-3.328.02-6.657.02-3.328.02-6.658 0-1.07-.178-2.219-.179-1.149-.793-1.942-.613-.792-2.001-.792-.871 0-1.803.634a8.2 8.2 0 0 0-1.664 1.506q-.733.872-1.051 1.625v14.028q0 .356.1.674.098.316.534.316.318 0 .654-.019.337-.02.654-.02.198 0 .397.158.198.159.198.357 0 .753-.635.753a24 24 0 0 1-2.199-.099 25 25 0 0 0-2.239-.099q-1.188 0-2.397.099t-2.437.099q-.277 0-.397-.218a.94.94 0 0 1-.118-.456q0-.594.633-.594.357 0 .714.02t.753.019q.555 0 .634-.237.08-.239.079-.753v-15.416q0-.435-.119-.97t-.713-.535q-.396 0-.773.039-.376.04-.773.04a1.7 1.7 0 0 1-.534-.099q-.298-.1-.298-.416 0-.239.159-.357a.9.9 0 0 1 .356-.158q.396-.12.833-.159t.832-.119a36 36 0 0 0 2.041-.455q1.01-.258 2.001-.535.158-.08.317-.139a.9.9 0 0 1 .317-.06q.317 0 .574.595.258.594.436 1.268.179.674.218.951 1.15-1.03 2.774-1.843t3.21-.812q2.655 0 4.141.674 1.487.673 2.12 2.239.634 1.565.634 4.18 0 3.092-.039 6.182-.04 3.091-.04 6.182 0 .396.258.575.256.178.654.178.277 0 .534-.04.258-.039.536-.039.554 0 .554.634m14.147-3.646a88.396 88.396 0 0 1-.158-7.529 11.9 11.9 0 0 0-3.151 1.01q-1.526.733-2.516 1.962-.991 1.228-.991 3.131 0 .792.218 1.703.218.912.793 1.526t1.565.614q.714 0 1.506-.416a11 11 0 0 0 1.525-.971q.733-.554 1.209-1.03m8.164 2.338q0 .159-.139.357a2.5 2.5 0 0 1-.258.317q-1.228 1.426-3.17 1.426-1.704 0-2.734-.753-1.03-.752-1.585-2.338-1.269 1.348-2.715 2.14-1.446.793-3.388.793-1.387 0-2.794-.614a6.1 6.1 0 0 1-2.338-1.764 4.1 4.1 0 0 1-.931-2.655q0-1.506.773-2.675a7.7 7.7 0 0 1 1.961-2.021 14 14 0 0 1 2.418-1.407 19 19 0 0 1 3.249-1.05q1.664-.376 3.329-.773v-.158q0-.713-.02-1.922a13.6 13.6 0 0 0-.258-2.417q-.237-1.209-.792-2.061t-1.625-.852q-1.229 0-2.199.714a3.78 3.78 0 0 0-1.367 1.902 7 7 0 0 0-.119.693 7 7 0 0 1-.119.693q-.08.634-.733.853a3.9 3.9 0 0 1-1.209.217q-.673 0-1.308-.297-.634-.297-.634-1.129 0-.317.099-.574.1-.258.218-.536.635-1.505 1.902-2.219a8.3 8.3 0 0 1 2.794-.951 19 19 0 0 1 2.913-.238q3.249 0 5.35 1.744t2.1 5.152v5.984a44.244 44.244 0 0 0 .079 4.596q.08.674.317 1.288.238.614 1.07.614.555 0 .931-.237.377-.238.694-.238.158 0 .198.158.04.159.04.238m24.291 1.308q0 .634-.634.634-1.15 0-2.318-.06a44.438 44.438 0 0 0-4.577 0q-1.149.06-2.299.06-.277 0-.396-.218a.94.94 0 0 1-.119-.456q0-.594.634-.594.357 0 .714.02.356.02.713.019.594 0 .594-.515 0-3.328.02-6.657.02-3.328.02-6.658 0-1.07-.178-2.219-.179-1.149-.793-1.942t-2.001-.792q-.871 0-1.803.634a8.2 8.2 0 0 0-1.664 1.506q-.733.872-1.051 1.625v14.028q0 .356.1.674.098.316.534.316.318 0 .654-.019.338-.02.654-.02.198 0 .397.158.198.159.198.357 0 .753-.635.753a24 24 0 0 1-2.199-.099 25 25 0 0 0-2.239-.099q-1.188 0-2.397.099t-2.437.099q-.277 0-.397-.218a.94.94 0 0 1-.118-.456q0-.594.633-.594.357 0 .714.02t.753.019q.555 0 .634-.237.08-.239.079-.753v-15.416q0-.435-.119-.97t-.713-.535q-.396 0-.773.039-.376.04-.773.04a1.7 1.7 0 0 1-.534-.099q-.298-.1-.298-.416 0-.239.159-.357a.9.9 0 0 1 .356-.158q.396-.12.833-.159.435-.04.832-.119a36 36 0 0 0 2.041-.455q1.01-.258 2.001-.535.158-.08.317-.139a.9.9 0 0 1 .317-.06q.317 0 .574.595.258.594.436 1.268.179.674.218.951 1.15-1.03 2.774-1.843t3.21-.812q2.655 0 4.141.674 1.487.673 2.12 2.239.634 1.565.634 4.18 0 3.092-.039 6.182-.04 3.091-.04 6.182 0 .396.258.575.257.178.654.178.277 0 .534-.04.257-.039.536-.039.554 0 .554.634m21.875-4.716a.8.8 0 0 1-.08.337 8 8 0 0 1-.158.337 7.8 7.8 0 0 1-2.239 2.595 10.7 10.7 0 0 1-3.111 1.606 11 11 0 0 1-3.408.554q-1.465 0-3.21-.475-1.743-.477-3.011-1.348-2.061-1.506-3.032-3.725a11.6 11.6 0 0 1-.971-4.715q0-3.092 1.189-5.647 1.189-2.557 3.467-4.102t5.528-1.545q1.19 0 2.259.356.317.08 1.011.417.693.336 1.367.614t.832.277q.437 0 .852-.337.416-.337.654-.337t.238.317q.079.397.079.852 0 .456.04.892.039.951.138 1.902t.099 1.902q0 .515-.158.912-.159.396-.753.396-.397 0-.594-.198a1.1 1.1 0 0 1-.278-.515 115 115 0 0 0-.971-2.794q-.495-1.368-1.644-2.398-.436-.435-1.249-.812-.812-.376-1.446-.376-1.664 0-2.734 1.07t-1.704 2.655a14.8 14.8 0 0 0-.892 3.269q-.257 1.685-.257 2.952 0 1.19.277 2.754.278 1.566.911 3.012.634 1.446 1.665 2.417 1.03.97 2.576.971 1.466 0 2.972-.634 1.506-.633 2.536-1.664.316-.317.654-.674.336-.357.614-.753a8 8 0 0 1 .238-.376q.118-.179.277-.337.317-.317.634-.317t.555.198a.64.64 0 0 1 .238.515m15.415-8.639q0-.792-.079-1.902a10.7 10.7 0 0 0-.377-2.16q-.298-1.05-.931-1.763-.634-.713-1.744-.713-1.07 0-1.882.693a5.9 5.9 0 0 0-1.367 1.744q-.555 1.05-.872 2.179-.317 1.13-.476 2.002.674 0 1.328.019.654.02 1.288.02 2.575 0 5.112-.119m5.706 8.758q0 .119-.059.337-.06.217-.139.337-.278.634-1.03 1.446-.753.813-1.347 1.248-2.656 2.022-6.143 2.021-3.13 0-5.429-1.327a8.9 8.9 0 0 1-3.527-3.705q-1.228-2.378-1.228-5.469t1.208-5.607 3.488-4.003q2.278-1.486 5.488-1.486 3.686 0 5.904 2.021 2.22 2.022 2.22 5.786 0 1.03-.951 1.03-1.744 0-3.488-.039-1.743-.04-3.487-.04h-2.536q-1.268 0-2.536.04a24 24 0 0 0-.119 2.417q0 1.11.297 2.615t.912 2.933 1.604 2.358q.992.931 2.418.931 1.783 0 2.992-.515a6.8 6.8 0 0 0 2.159-1.466 22 22 0 0 0 1.942-2.259 1.2 1.2 0 0 1 .258-.258.56.56 0 0 1 .337-.099q.277 0 .535.218a.68.68 0 0 1 .257.535"/><path id="capital" fill="#000" fill-rule="nonzero" d="M453.723 389.791q0 .62-.625 1.734-.627 1.115-.877 1.734-1.626 2.849-5.006 5.945t-6.258 5.078q-5.883 4.088-12.391 5.326-6.509 1.239-13.518 1.239-13.643 0-23.28-5.636-9.638-5.635-14.706-15.73-5.07-10.094-5.069-23.347 0-13.128 4.881-23.656t14.456-16.783 23.468-6.254q6.258 0 10.639 1.486a581 581 0 0 1 9.887 3.468 35 35 0 0 0 5.257 1.3q2.628.433 5.382.681.125 2.725.376 5.512.25 2.786.625 5.636.25 2.353.877 4.83.625 2.477.625 4.954 0 2.354-1.689 3.468-1.69 1.115-3.818 1.115-3.504 0-4.881-2.849a8.7 8.7 0 0 1-.501-2.167 12 12 0 0 0-.375-2.044q-.876-3.963-3.066-8.608-2.192-4.644-5.195-7.37-2.378-2.105-6.508-3.777t-7.385-1.672q-3.129 0-5.82 1.362a30.7 30.7 0 0 0-5.194 3.344 33.1 33.1 0 0 0-8.511 10.652q-3.129 6.193-4.381 13.191-1.251 6.998-1.251 13.686 0 4.459.563 8.856t1.815 8.732a43 43 0 0 0 5.069 10.961q3.317 5.14 8.26 8.298 4.944 3.159 11.453 3.159 9.262 0 16.834-4.583t12.579-12.014q.75-1.239 1.564-2.167.814-.93 2.441-.929 1.627 0 2.441 1.238.813 1.239.813 2.601m60.078-15.977a1125 1125 0 0 0-7.197-20.932 725 725 0 0 1-7.072-20.932q-3.63 10.528-7.197 20.932a13853 13853 0 0 1-7.196 20.932zm37.548 35.546q0 1.858-2.378 1.858h-1.502q-.75 0-1.627-.123a81 81 0 0 0-6.446-.248h-14.832q-4.13 0-8.385.248a4.2 4.2 0 0 1-1.002.123h-1.001q-1.752 0-1.752-1.734 0-1.486 1.064-1.796 1.064-.309 2.44-.186 1.377.124 2.253.124 2.253 0 3.317-.929t1.064-3.282q0-1.363-.876-4.768a173 173 0 0 0-2.128-7.494 288 288 0 0 0-2.441-7.617l-1.689-5.016h-31.916l-1.127 3.344q-.876 2.601-2.065 6.069t-2.315 6.812q-1.127 3.345-1.878 5.76t-.751 2.91q0 2.354 1.252 3.22 1.251.868 3.128.929 1.879.062 3.63.062.626 0 1.002.805.375.805.375 1.425 0 .743-.563 1.115a2.13 2.13 0 0 1-1.189.371q-4.13 0-8.198-.186a178 178 0 0 0-8.073-.185q-2.002 0-4.005.124a67 67 0 0 1-4.131.123q-.625 0-1.251-.495t-.626-1.115q0-1.362 1.001-1.734t2.316-.31q1.314.063 2.19.062 1.628 0 2.691-1.3 1.065-1.3 1.565-2.539a1013 1013 0 0 0 14.018-36.848 1860 1860 0 0 0 12.891-37.219q.5-1.362 1.252-3.839.751-2.477.751-3.716 0-.742-.313-1.3t-.313-1.053 1.252-.743q1.251-.248 2.628-.372 1.377-.123 1.753-.123 2.627-.372 5.193-.744a106 106 0 0 1 5.195-.619l30.665 85.585q1 2.973 2.69 3.778t4.569.805q1.127 0 1.877.309.751.31.751 1.672m59.577-66.758q0-5.202-1.752-9.537t-5.444-6.874-9.325-2.539a51 51 0 0 1-2.503-.062 51 51 0 0 0-2.504-.062q-3.129 0-4.004.557-.877.558-.877 4.025v16.969q0 8.546.126 16.968 1.877 1.61 4.38 2.044t4.882.433q6.508 0 10.2-3.158t5.257-8.237a35.6 35.6 0 0 0 1.564-10.527m18.024-.372q0 8.175-2.879 13.315t-7.823 7.988-11.264 3.902-13.33 1.053q-2.253 0-4.506-.248l-4.505-.496v36.043q0 .99.437 2.105.438 1.115 1.69 1.115 1.628 0 3.192-.124a41 41 0 0 1 3.191-.124q.877 0 1.44.991.563.992.563 1.61 0 .867-.626 1.363-.626.495-1.377.495a43 43 0 0 1-3.254-.123 541 541 0 0 0-3.379-.248 52 52 0 0 0-5.132-.248h-5.131q-6.008 0-11.891.372-1.376.123-2.691.185-1.314.063-2.691.062-1.251 0-1.627-.805a3.9 3.9 0 0 1-.375-1.672q0-.99.751-1.424a3.2 3.2 0 0 1 1.626-.434q1.128 0 2.254.124 1.125.124 2.377.124h1.252q1.752-.123 2.066-1.982.312-1.857.312-3.096v-72.952q0-.99-.25-2.91t-1.752-2.044h-1.252q-1.251 0-2.503.124-1.251.124-2.504.124-.876 0-1.689-.743-.813-.744-.814-1.61 0-.868.814-1.611.813-.743 1.689-.743a33 33 0 0 1 2.817.124q1.44.123 2.816.248 2.878.123 5.695.186 2.816.062 5.57.062 5.757 0 11.452-.31t11.452-.31q5.507 0 10.827 1.177 5.319 1.177 9.574 3.777 4.256 2.601 6.822 6.936t2.566 10.652m45.058-19.941q0 2.106-2.003 2.106a78 78 0 0 1-3.066-.062 78 78 0 0 0-3.067-.062q-1.251 0-1.752 1.053a5 5 0 0 0-.501 2.167q0 4.335-.062 8.732a610 610 0 0 0-.063 8.732q0 13.624.063 27.311.062 13.685.062 27.31 0 .867-.125 2.725t.313 3.406 1.815 1.548q1.627 0 3.254-.124a43 43 0 0 1 3.254-.124q.877 0 1.252.681.375.683.375 1.548a2.36 2.36 0 0 1-.563 1.549q-.563.681-1.564.681-4.255 0-8.449-.124a288 288 0 0 0-16.959 0 291 291 0 0 1-8.511.124q-1.252 0-1.627-.495-.376-.496-.376-1.611 0-.99.438-1.672t1.44-.681q1.375 0 2.754.124 1.376.124 2.627.124 1.753 0 2.379-1.115.625-1.115.751-2.663.125-1.548.125-2.663l.125-71.094q0-1.114-.25-3.282-.25-2.167-1.753-2.291h-1.377q-1.25 0-2.44.124t-2.44.124q-2.379 0-2.379-2.353 0-.868.563-1.487.564-.62 1.44-.619 5.382 0 10.701.248 5.32.247 10.702.247 3.253 0 6.571-.247a88 88 0 0 1 6.57-.248q1.002 0 1.377.743.376.743.376 1.61m94.122 20.065q0 1.24-.626 2.291-.626 1.053-2.003 1.053-2.003 0-2.691-.867t-1.189-2.477q-.375-1.734-1.189-4.273a121 121 0 0 0-1.752-5.078q-.94-2.539-1.94-3.902-.5-.743-1.127-1.424a38 38 0 0 0-1.251-1.301q-.876-1.115-3.13-1.548a28.3 28.3 0 0 0-4.631-.495 154 154 0 0 0-3.754-.062h-3.505q-1.877 0-3.254.805t-1.502 3.034a291 291 0 0 0-.125 8.609v8.732q0 14.119.063 28.239.062 14.12.062 28.239 0 1.486.438 3.468t2.441 1.982q1.878 0 3.692-.124a54 54 0 0 1 3.693-.124q1 0 1.502.805.5.805.5 1.548 0 2.23-2.127 2.23a33 33 0 0 1-2.817-.124q-1.439-.124-2.816-.248a46 46 0 0 0-4.756-.247h-13.142q-4.13 0-8.261.247-1.502.124-3.066.248a39 39 0 0 1-3.067.124q-1.126 0-1.752-.743a2.6 2.6 0 0 1-.626-1.735q0-1.362 1.127-1.672a8 8 0 0 1 2.128-.309q1.376 0 2.565.062a47 47 0 0 0 2.441.062q3.254 0 3.692-1.487.439-1.485.438-4.211v-69.112q0-4.83-.5-6.502-.501-1.673-2.629-1.734-2.127-.062-7.009-.062-1.627 0-4.443.124-2.816.123-4.193.867-1.627.867-2.628 2.291t-1.628 3.158q-1.001 2.85-1.939 5.822a197 197 0 0 1-1.94 5.821q-.501 1.734-1.252 2.539-.75.805-2.754.805-2.378 0-2.378-2.477 0-3.221.689-7.369.688-4.15.813-7.742.125-1.982.063-4.025a17 17 0 0 1 .313-3.901q.124-.867.876-.867 1.376 0 2.816.371 1.439.372 2.816.62a72 72 0 0 0 3.067.185q1.563.062 3.191.186 6.633.123 13.831.186 7.196.062 13.705.062 7.384 0 15.52-.124t15.52-.124h1.564a9.6 9.6 0 0 0 1.565-.124 15.3 15.3 0 0 0 2.691-.743 7.6 7.6 0 0 1 2.691-.495q.625 0 .876.619.376 1.734.501 4.025t.25 4.025q.375 3.47.814 7.122.437 3.654.438 7.246m58.701 31.46a1125 1125 0 0 0-7.197-20.932 725 725 0 0 1-7.072-20.932q-3.63 10.528-7.196 20.932-3.568 10.404-7.197 20.932zm37.548 35.546q0 1.858-2.378 1.858h-1.502q-.75 0-1.627-.123a81 81 0 0 0-6.446-.248h-14.832q-4.13 0-8.385.248a4.2 4.2 0 0 1-1.001.123h-1.002q-1.752 0-1.752-1.734 0-1.486 1.064-1.796 1.063-.309 2.441-.186 1.376.124 2.252.124 2.253 0 3.317-.929t1.064-3.282q0-1.363-.876-4.768a172 172 0 0 0-2.128-7.494 292 292 0 0 0-2.44-7.617l-1.69-5.016h-31.917l-1.126 3.344q-.876 2.601-2.065 6.069t-2.316 6.812q-1.127 3.345-1.877 5.76-.751 2.415-.751 2.91 0 2.354 1.251 3.22 1.252.868 3.13.929t3.629.062q.625 0 1.002.805.375.805.375 1.425 0 .743-.563 1.115a2.13 2.13 0 0 1-1.189.371q-4.131 0-8.198-.186a178 178 0 0 0-8.073-.185q-2.002 0-4.005.124a68 68 0 0 1-4.131.123q-.626 0-1.251-.495-.627-.495-.626-1.115 0-1.362 1.001-1.734t2.316-.31q1.314.063 2.19.062 1.628 0 2.691-1.3 1.064-1.3 1.565-2.539a1013 1013 0 0 0 14.018-36.848 1866 1866 0 0 0 12.891-37.219q.5-1.362 1.252-3.839.75-2.477.751-3.716 0-.742-.313-1.3t-.313-1.053 1.252-.743 2.628-.372q1.377-.123 1.753-.123 2.627-.372 5.193-.744a106 106 0 0 1 5.195-.619l30.665 85.585q1 2.973 2.69 3.778t4.568.805q1.127 0 1.878.309.751.31.751 1.672m83.108-27.248q0 1.981-.251 3.964-.25 1.98-.501 4.087-.5 4.335-1.126 8.67a153 153 0 0 0-1.001 8.669q0 1.239-.5 2.106-.627.867-1.878 1.053-1.252.186-2.253.186a73 73 0 0 1-3.004-.062 75 75 0 0 0-3.129-.062 999 999 0 0 0-15.771-.124H882.59q-2.691 0-5.444.124-1.377.123-2.754.186-1.376.062-2.754.062-1.125 0-1.939-.62t-.814-1.734q0-1.238.814-1.858a2.93 2.93 0 0 1 1.814-.619q1.001 0 2.066.124 1.063.124 2.065.124 2.003 0 3.129-.558 1.126-.557 1.126-2.786v-38.458q0-19.26-.125-38.333 0-1.486-.563-1.92-.564-.434-1.94-.434-1.377 0-2.816.124-1.44.124-2.942.124-.876 0-1.627-.619-.751-.62-.751-1.61 0-2.353 2.503-2.353 1.378 0 2.879.123l3.004.248q3.004.123 5.946.186 2.94.062 5.945.062h4.943q2.442 0 4.819-.124a79 79 0 0 0 3.38-.31 29 29 0 0 1 3.254-.185q2.002 0 2.002 2.105 0 .867-.5 1.672-.501.805-1.502.805-1.627 0-3.192-.124a42 42 0 0 0-3.317-.124q-1.376 0-1.689.682-.313.68-.313 1.919 0 4.583-.063 9.042a640 640 0 0 0-.062 9.041q0 14.368.062 28.859.063 14.491.063 28.859 0 1.238.625 2.353.627 1.114 1.878 1.486 1.627.372 3.379.372h3.38q9.387 0 16.271-1.858t11.702-6.874q4.82-5.016 7.948-14.553a8.5 8.5 0 0 1 1.001-2.044q.626-.929 1.878-.929.751 0 1.439.495.689.496.689 1.363"/><path id="Square" fill="#1a1a1a" d="M14.745 199.861h319.05V518.91H14.745zm16.237 16.237h286.373v286.576H30.982z"/><path id="Barre1" fill="gray" d="M172.093 284.291h30.849v44.811l-30.849 29.613z"/><path id="Barre2" fill="gray" d="M213.186 246.744h30.85v62.847l-30.85 7.628z"/><path id="Barre3" fill="gray" d="M254.276 199.861h30.85v127.162l-30.85-14.024z"/><path id="bigC" fill="#000" fill-rule="nonzero" d="M308.185 444.16q0 1.215-1.214 3.399t-1.7 3.399q-3.156 5.584-9.71 11.653t-12.139 9.954q-11.41 8.011-24.034 10.439t-26.22 2.428q-26.462 0-45.155-11.046-18.693-11.047-28.526-30.833t-9.832-45.762q0-25.734 9.468-46.369t28.04-32.896q18.572-12.26 45.52-12.259 12.139 0 20.635 2.913a1114 1114 0 0 1 19.179 6.797 67 67 0 0 0 10.197 2.549q5.098.85 10.439 1.336.243 5.34.728 10.803.486 5.463 1.214 11.046.486 4.613 1.699 9.468a40 40 0 0 1 1.214 9.711q0 4.613-3.277 6.798t-7.405 2.185q-6.796 0-9.468-5.584-.728-1.942-.971-4.249-.242-2.306-.728-4.005-1.7-7.769-5.948-16.873t-10.075-14.445q-4.612-4.126-12.624-7.404t-14.324-3.278q-6.07 0-11.288 2.671-5.22 2.67-10.076 6.555-10.439 8.739-16.508 20.878-6.07 12.138-8.497 25.855t-2.428 26.826q0 8.74 1.093 17.358a115 115 0 0 0 3.52 17.116 84.6 84.6 0 0 0 9.832 21.485q6.433 10.075 16.023 16.266t22.214 6.19q17.965 0 32.652-8.982 14.688-8.983 24.399-23.549 1.456-2.428 3.035-4.249 1.578-1.82 4.734-1.82t4.734 2.427 1.578 5.098"/><path id="bigJ" fill="#000" fill-rule="nonzero" d="M161.266 237.461q0 1.646-1.294 3.057-1.293 1.41-3.174 1.41a110 110 0 0 1-4.938-.117 113 113 0 0 0-5.173-.118q-3.997 0-5.643 2.587-1.646 2.586-1.764 5.996a189 189 0 0 0-.117 6.466 5543 5543 0 0 0-.118 62.665q.117 31.39.118 62.9 0 18.34-4.938 33.154-4.939 14.814-16.813 23.632t-32.567 8.818q-4.938 0-10.111-.118a61.4 61.4 0 0 1-10.111-1.058q-3.761-.941-8.465-3.292-4.702-2.351-8.23-5.996-3.527-3.645-3.527-7.877 0-7.054 5.879-10.111t11.757-3.057q4.938 0 10.228 2.351t5.291 8.465q-1.88.94-3.997 2.705-2.117 1.763-2.117 4.349 0 2.588 2.352 4.116 2.35 1.529 5.525 1.998t5.056.47q8.465 0 12.933-4.114 4.467-4.116 6.113-10.582t1.764-13.638.118-13.05v-142.73q0-2.351-.118-5.761t-1.176-6.231-4.115-3.292a4.8 4.8 0 0 0-1.528-.235h-1.764q-3.056 0-5.996.352a52 52 0 0 1-6.231.353q-1.646 0-2.704-1.41-1.059-1.412-1.058-3.057 0-1.647.94-3.175.941-1.528 2.822-1.528 2.821 0 5.761.117t5.761.353a690 690 0 0 0 25.63.471q8.936 0 17.753-.471 8.817-.47 17.518-.47 4.468 0 4.468 4.703"/></g></svg>