<svg xmlns="http://www.w3.org/2000/svg" xml:space="preserve" fill-rule="evenodd" clip-rule="evenodd" image-rendering="optimizeQuality" shape-rendering="geometricPrecision" text-rendering="geometricPrecision" viewBox="5 191 339 339"><g id="Layer_x0020_1"><path id="Square" fill="#ffffff" d="M14.745 199.861h319.05V518.91H14.745zm16.237 16.237h286.373v286.576H30.982z"/><path id="Barre1" fill="#a2c2ec" d="M172.093 284.291h30.849v44.811l-30.849 29.613z"/><path id="Barre2" fill="#4f9da6" d="M213.186 246.744h30.85v62.847l-30.85 7.628z"/><path id="Barre3" fill="#ff715b" d="M254.276 199.861h30.85v127.162l-30.85-14.024z"/><path id="bigC" fill="#ffffff" fill-rule="nonzero" d="M308.185 444.16q0 1.215-1.214 3.399t-1.7 3.399q-3.156 5.584-9.71 11.653t-12.139 9.954q-11.41 8.011-24.034 10.439t-26.22 2.428q-26.462 0-45.155-11.046-18.693-11.047-28.526-30.833t-9.832-45.762q0-25.734 9.468-46.369t28.04-32.896q18.572-12.26 45.52-12.259 12.139 0 20.635 2.913a1114 1114 0 0 1 19.179 6.797 67 67 0 0 0 10.197 2.549q5.098.85 10.439 1.336.243 5.34.728 10.803.486 5.463 1.214 11.046.486 4.613 1.699 9.468a40 40 0 0 1 1.214 9.711q0 4.613-3.277 6.798t-7.405 2.185q-6.796 0-9.468-5.584-.728-1.942-.971-4.249-.242-2.306-.728-4.005-1.7-7.769-5.948-16.873t-10.075-14.445q-4.612-4.126-12.624-7.404t-14.324-3.278q-6.07 0-11.288 2.671-5.22 2.67-10.076 6.555-10.439 8.739-16.508 20.878-6.07 12.138-8.497 25.855t-2.428 26.826q0 8.74 1.093 17.358a115 115 0 0 0 3.52 17.116 84.6 84.6 0 0 0 9.832 21.485q6.433 10.075 16.023 16.266t22.214 6.19q17.965 0 32.652-8.982 14.688-8.983 24.399-23.549 1.456-2.428 3.035-4.249 1.578-1.82 4.734-1.82t4.734 2.427 1.578 5.098"/><path id="bigJ" fill="#ffffff" fill-rule="nonzero" d="M161.266 237.461q0 1.646-1.294 3.057-1.293 1.41-3.174 1.41a110 110 0 0 1-4.938-.117 113 113 0 0 0-5.173-.118q-3.997 0-5.643 2.587-1.646 2.586-1.764 5.996a189 189 0 0 0-.117 6.466 5543 5543 0 0 0-.118 62.665q.117 31.39.118 62.9 0 18.34-4.938 33.154-4.939 14.814-16.813 23.632t-32.567 8.818q-4.938 0-10.111-.118a61.4 61.4 0 0 1-10.111-1.058q-3.761-.941-8.465-3.292-4.702-2.351-8.23-5.996-3.527-3.645-3.527-7.877 0-7.054 5.879-10.111t11.757-3.057q4.938 0 10.228 2.351t5.291 8.465q-1.88.94-3.997 2.705-2.117 1.763-2.117 4.349 0 2.588 2.352 4.116 2.35 1.529 5.525 1.998t5.056.47q8.465 0 12.933-4.114 4.467-4.116 6.113-10.582t1.764-13.638.118-13.05v-142.73q0-2.351-.118-5.761t-1.176-6.231-4.115-3.292a4.8 4.8 0 0 0-1.528-.235h-1.764q-3.056 0-5.996.352a52 52 0 0 1-6.231.353q-1.646 0-2.704-1.41-1.059-1.412-1.058-3.057 0-1.647.94-3.175.941-1.528 2.822-1.528 2.821 0 5.761.117t5.761.353a690 690 0 0 0 25.63.471q8.936 0 17.753-.471 8.817-.47 17.518-.47 4.468 0 4.468 4.703"/></g></svg>